<svg width="40" height="40" viewBox="0 0 40 40" fill="none" xmlns="http://www.w3.org/2000/svg">
<path d="M17.1369 13.3208C17.1369 14.9697 18.4736 16.3066 20.1225 16.3066C21.7714 16.3066 23.1082 14.9697 23.1082 13.3208C23.1082 11.6719 21.7714 10.3352 20.1225 10.3352C18.4736 10.3352 17.1369 11.6719 17.1369 13.3208Z" fill="#666666"/>
<path fill-rule="evenodd" clip-rule="evenodd" d="M20 40C31.0457 40 40 31.0457 40 20C40 8.95431 31.0457 0 20 0C8.9543 0 0 8.95431 0 20C0 31.0457 8.9543 40 20 40ZM12.9 13.3207C12.9 9.33189 16.1336 6.09819 20.1225 6.09819C24.1115 6.09819 27.3451 9.33189 27.3451 13.3207C27.3451 17.3097 24.1115 20.5436 20.1225 20.5436C16.1336 20.5436 12.9 17.3097 12.9 13.3207ZM27.3882 24.2587C27.2966 24.3322 25.5638 25.7015 22.6723 26.2905L27.0369 30.6162C27.8045 31.3825 27.8054 32.6259 27.0391 33.3935C26.2728 34.1609 25.0296 34.1622 24.2618 33.3957L20.0245 29.2693L16.1759 33.3691C15.7906 33.7688 15.2766 33.9698 14.7621 33.9698C14.2713 33.9698 13.7802 33.7872 13.3991 33.4197C12.6183 32.6669 12.5957 31.4237 13.3485 30.6429L17.4913 26.3134C14.5188 25.7382 12.7145 24.3332 12.6216 24.2587C11.7755 23.5801 11.6396 22.3442 12.3182 21.498C12.9966 20.6519 14.2325 20.516 15.0788 21.1944C15.0966 21.2089 16.9838 22.6266 20.0244 22.6286C23.0651 22.6266 24.9132 21.2089 24.9311 21.1944C25.7774 20.516 27.0132 20.6519 27.6917 21.498C28.3702 22.3442 28.2343 23.5801 27.3882 24.2587Z" fill="#666666"/>
</svg>
