<svg width="41" height="40" viewBox="0 0 41 40" fill="none" xmlns="http://www.w3.org/2000/svg">
<path d="M20.082 0C9.03671 0 0.0820312 8.95427 0.0820312 20C0.0820312 31.0457 9.03671 40 20.082 40C31.1274 40 40.082 31.0457 40.082 20C40.082 8.95427 31.1274 0 20.082 0ZM30.2271 22.1631C31.1593 23.0736 32.1455 23.9304 32.9823 24.935C33.353 25.3794 33.7025 25.839 33.9685 26.3558C34.3482 27.0928 34.0053 27.901 33.3457 27.9448L29.2483 27.9439C28.1901 28.0315 27.3479 27.6047 26.6379 26.8812C26.0712 26.3047 25.5454 25.6888 24.9995 25.0926C24.7765 24.8479 24.5416 24.6175 24.2617 24.4362C23.7031 24.0728 23.2178 24.1841 22.8978 24.7677C22.5716 25.3614 22.4972 26.0194 22.4661 26.6803C22.4215 27.6464 22.1301 27.8989 21.1607 27.9443C19.0893 28.0413 17.1239 27.7271 15.2972 26.6828C13.6857 25.7616 12.4385 24.4616 11.3516 22.9897C9.23518 20.1203 7.61431 16.971 6.15794 13.7314C5.83016 13.0017 6.06996 12.6114 6.87487 12.5962C8.21216 12.5704 9.54945 12.5737 10.8867 12.595C11.431 12.6036 11.7911 12.915 12.0002 13.4285C12.7228 15.2065 13.6088 16.8982 14.719 18.4671C15.0148 18.8849 15.3168 19.3015 15.7469 19.5965C16.2216 19.9223 16.5833 19.8146 16.8071 19.2847C16.9504 18.9479 17.0122 18.5878 17.0433 18.2269C17.1497 16.9907 17.1623 15.7549 16.9782 14.5236C16.8636 13.753 16.4303 13.2554 15.6622 13.1098C15.271 13.0357 15.3283 12.8908 15.5186 12.6674C15.8488 12.2811 16.1581 12.0421 16.7765 12.0421L21.4058 12.0413C22.1354 12.1846 22.2991 12.5119 22.3981 13.2469L22.4022 18.3914C22.3936 18.6758 22.545 19.5188 23.0557 19.705C23.4649 19.84 23.735 19.5118 23.9797 19.2528C25.0899 18.0747 25.8809 16.6842 26.5892 15.245C26.9019 14.6103 27.1715 13.9536 27.4334 13.2956C27.6282 12.809 27.931 12.5696 28.4802 12.5778L32.9381 12.5831C33.0694 12.5831 33.2029 12.5843 33.333 12.6069C34.0843 12.7353 34.2901 13.0586 34.0577 13.7915C33.6919 14.943 32.9811 15.9022 32.2862 16.8638C31.5415 17.8934 30.7472 18.887 30.0098 19.921C29.3322 20.8663 29.3858 21.3422 30.2271 22.1631Z" fill="#666666"/>
</svg>
